<svg id="Layer_1" data-name="Layer 1" xmlns="http://www.w3.org/2000/svg" viewBox="0 0 224.19 339.93"><defs><style>.cls-1{fill:#004fa0;}</style></defs><title>Air-Cooler</title><path class="cls-1" d="M103.8,2C93.3,6,87.2,12.1,84.5,21.4c-2.3,7.5-2.2,268.8,0,276.3a30.07,30.07,0,0,0,11.8,15.6l4.2,2.8.5,11.7.5,11.7h57L159,329l.5-10.5,35.3-.3L230,318v9.8c0,6.3.4,10.2,1.2,11s8.7,1.2,28.9,1.2c24.3,0,27.8-.2,28.3-1.6.3-.9.6-6.2.6-12V316l3.9-2.4a30.47,30.47,0,0,0,12.1-16c2-5.9,2-8.1,2-137.9,0-144.8.3-137.9-6-146.5A30.5,30.5,0,0,0,286,2.1C280.6,0,279.3,0,194.5.1,114.5.2,108.2.3,103.8,2Zm14.4,85.7c.3,72.2.4,76,2.2,79.6a19.25,19.25,0,0,0,5.9,6.5l4.1,2.7,62,.3c42.3.2,63.3,0,65.8-.8,4.8-1.4,9.7-5.5,11.4-9.7,1.1-2.6,1.4-17.3,1.4-78.9V11.8l6.5.4c5.3.3,7.1.9,10.2,3.4,8,6.4,7.3-6.5,7.1,145l-.3,135.1-2.8,3.6A24,24,0,0,1,285,305c-3.8,2-6,2-90.3,2H108.3l-4.4-2.3a17.35,17.35,0,0,1-6.9-6.8l-2.5-4.4L94.2,162c-.2-92.7.1-132.8.8-135.9a26.9,26.9,0,0,1,3-7.2c2.8-3.8,9.6-6.9,15.2-6.9H118ZM260,18v6H130V12H260Zm-.2,23.7-.3,5.8-64.7.3L130,48V36H260.1ZM260,65v6H130V59H260Zm-.7,18c.4,0,.7,2.6.5,5.7l-.3,5.8-64.7.3L130,95V89.2a29.9,29.9,0,0,1,.4-6.3C130.7,82.6,225.5,82.7,259.3,83Zm.5,29.2.3,5.8H130V106l64.8.2,64.7.3ZM260,136v6H130V130H260Zm-.2,21.2c.3,2.9-.2,4.3-2.2,6.3l-2.5,2.5H194.5c-59.2,0-60.5,0-62.5-2-1.4-1.4-2-3.3-2-6.5V153l64.8.2,64.7.3ZM147.5,324.5v6h-35l-.3-4.9c-.5-8-1.4-7.7,18-7.4l17.3.3Zm130,0v6h-35l-.3-6.3-.3-6.2,17.8.2,17.8.3Z" transform="translate(-82.81 -0.07)"/><path class="cls-1" d="M128.4,255.9A18.1,18.1,0,0,0,122,261c-11.1,15.6,7.3,35.4,23,24.7,5.3-3.6,7.3-7,7.8-13.4.3-5,0-6.4-2.5-10.1C145.3,254.7,136.7,252.2,128.4,255.9Zm11.3,11.3a7.29,7.29,0,0,1,2.3,4.4c0,3-4.6,6.6-7.4,5.8-4.9-1.4-6.3-8.1-2.4-10.8C135.2,264.5,136.9,264.6,139.7,267.2Z" transform="translate(-82.81 -0.07)"/><path class="cls-1" d="M187,256.2a16.82,16.82,0,0,0-4.5,27.3c6.2,6.1,14.6,7,21.5,2.2,9.1-6.1,10.7-17.4,3.7-25.4C201.9,253.8,194.7,252.3,187,256.2Zm11.4,10.9c3.4,2.7,3.2,6.4-.7,9.3-2.6,1.9-3,1.9-5.5.5-3.7-2-4.3-8-1-10.3C194.2,264.5,195.2,264.6,198.4,267.1Z" transform="translate(-82.81 -0.07)"/><path class="cls-1" d="M246,256.2a21.72,21.72,0,0,0-6.6,5.5c-10.4,15.7,8.2,34.5,23.6,24,9.1-6.1,10.7-17.4,3.7-25.4C260.9,253.8,253.7,252.3,246,256.2Zm11.5,11.3c1.4,1.3,2.5,3.1,2.5,4,0,1.9-4.4,6.5-6.2,6.5-5.4,0-8-8.4-3.6-11.4C253.3,264.4,254.7,264.6,257.5,267.5Z" transform="translate(-82.81 -0.07)"/></svg>