<svg id="Layer_1" data-name="Layer 1" xmlns="http://www.w3.org/2000/svg" viewBox="0 0 384 279.58"><defs><style>.cls-1{fill:#004fa0;}</style></defs><title>Air-Conditiner</title><path class="cls-1" d="M17.5,60.6C10.6,62.3,3.2,68.5.9,74.4.4,75.8,0,107,0,149.6v72.7L2.9,227a24.43,24.43,0,0,0,8.3,7.6l5.3,3.1H87.6c68.1,0,71.3-.1,73.5-1.9,3.1-2.5,3.2-8.3.1-11.4-2.3-2.2-2.3-2.2-48.5-2.7l-46.2-.5-.3-15.3-.3-15.2H318.1l-.3,15.2-.3,15.3-46.2.5c-46.2.5-46.2.5-48.5,2.7-3.1,3.1-3,8.9.1,11.4,2.2,1.8,5.4,1.9,73.5,1.9h71.1l5.3-3.1a24.43,24.43,0,0,0,8.3-7.6l2.9-4.7V149.6c0-42.6-.4-73.8-.9-75.2-1.5-3.8-7-9.6-11.5-12l-4.1-2.2L194,60C98.6,60,19.2,60.2,17.5,60.6ZM364,77.2a11.54,11.54,0,0,1,4,3.4c.6,1.3,1,24.9,1,68.9v66.9l-2.6,2.7c-2.6,2.6-2.8,2.6-17.5,2.6H334V200.8c0-20.7,0-21-2.4-23.8l-2.4-2.8H54.8L52.4,177c-2.4,2.8-2.4,3.1-2.4,23.8v20.9H35.1c-14.7,0-14.9,0-17.5-2.6L15,216.4V149.5c0-43.8.4-67.6,1-68.8,2.8-5.2-6.4-4.9,175.8-5C340.9,75.7,361.4,75.9,364,77.2Z" transform="translate(0 -60)"/><path class="cls-1" d="M69.5,110.5a7.3,7.3,0,0,0,0,11l2.4,2.5H312.1l2.4-2.5a7.3,7.3,0,0,0,0-11l-2.4-2.5H71.9Z" transform="translate(0 -60)"/><path class="cls-1" d="M186.2,212.6a14.84,14.84,0,0,0-3.8,4.6c-5.1,9.9,7.8,19.5,16.5,12.2,7.5-6.3,3-18.4-6.9-18.4A11.32,11.32,0,0,0,186.2,212.6Z" transform="translate(0 -60)"/><path class="cls-1" d="M159.4,241a9.46,9.46,0,0,0-5.4,7.9c0,3.6,8.4,11.2,16.6,15.1,18,8.6,40.8,5.3,54.5-7.9,5.6-5.4,6.2-8.4,2.6-12.7-3.5-4.1-7.4-3.7-14.1,1.5-5.9,4.6-15.3,8.1-21.6,8.1-6.1,0-15.6-3.5-21.3-7.8C164.8,240.7,162.4,239.8,159.4,241Z" transform="translate(0 -60)"/><path class="cls-1" d="M129.8,266.4c-2.5,1.9-3.9,6.2-2.9,8.8,1.1,2.9,8,9.5,14.6,14,33.2,22.9,80.9,19.8,109.9-7.2,5.7-5.3,6.9-8,5.5-11.7-2.5-6.8-8.6-7.1-15.5-.9C227.3,282,211,288.2,192,288.2s-35.3-6.2-49.4-18.8C137.5,264.7,133.2,263.7,129.8,266.4Z" transform="translate(0 -60)"/><path class="cls-1" d="M102.2,291.3a8.6,8.6,0,0,0-2.2,5.9c0,3.1.8,4.4,6.5,9.7,15.9,14.8,37.6,25.9,60.5,30.8,11.8,2.5,38.2,2.5,50,0,22.9-4.9,44.6-16,60.5-30.8,5.7-5.4,6.5-6.6,6.5-9.8,0-4.6-3.3-8.1-7.7-8.1-2.3,0-4.7,1.5-9.9,6.1-43.4,38.3-105.5,38.3-148.9-.1C109.8,288.2,106,287.3,102.2,291.3Z" transform="translate(0 -60)"/></svg>