<svg id="Layer_1" data-name="Layer 1" xmlns="http://www.w3.org/2000/svg" viewBox="0 0 307.78 307.88"><defs><style>.cls-1{fill:#03519e;}</style></defs><title>A-Air-Purifier</title><path class="cls-1" d="M127.65,7.86C102.37,11,66.2,23.19,62.76,29.72c-1.9,3.81-1.9,240.89,0,244.7,1.72,3.27,5,4.63,11.42,4.63h5.44v18l-6.44.36c-5.89.27-6.7.55-9.06,3.27C60,305.26,61,311.34,66.57,314c2.63,1.27,11.42,1.36,77.4,1.18l74.5-.27,2.63-3c3.44-3.81,3.44-7.43,0-11.24-2.36-2.72-3.17-3-9.07-3.27L205.6,297v-18H211c6.43,0,9.7-1.36,11.42-4.63,1.9-3.81,1.9-240.89,0-244.7-2.9-5.63-33.45-16.78-56.29-20.59C155.84,7.5,136.54,6.77,127.65,7.86Zm42,20a200.48,200.48,0,0,1,31.72,9.89l4.26,1.81-.18,30.11-.27,30.12-3.63,1.09A45.33,45.33,0,0,0,172.06,130c-1.72,5.71-1.81,8.35-1.81,68.39v62.49H115V198.42c0-60-.1-62.68-1.82-68.39a45.32,45.32,0,0,0-29.45-29.2l-3.63-1.09V39.24l7.52-3a167.54,167.54,0,0,1,32.81-9.34C133.09,24.55,156.48,25,169.62,27.81ZM85.51,121.05A36.17,36.17,0,0,1,92,127.4c5.8,7.62,5.71,6.89,5.71,73.38v60.13H79.62v-71.2c0-56.41.27-71.2,1.18-71.2A20.77,20.77,0,0,1,85.51,121.05ZM205.6,189.71v71.2H187.38l.27-62c.28-60.68.28-62,2.18-66,2.45-5.26,7-10.43,11.15-12.6a22.56,22.56,0,0,1,4-1.82C205.33,118.51,205.6,150.53,205.6,189.71Zm-18.13,98.41v9.07H97.84l-.28-8.71a57.83,57.83,0,0,1,.09-9.07c.19-.18,20.49-.36,45.14-.36h44.68Z" transform="translate(-25.44 -7.34)"/><path class="cls-1" d="M136,45.41a26.88,26.88,0,0,0-17.58,37.28C123.12,92.57,131.64,98,142.61,98a26,26,0,0,0,26.46-24.39,25,25,0,0,0-4.17-17A26.5,26.5,0,0,0,136,45.41Zm12.69,19.5c2.45,2.18,3,3.26,3,6.44s-.54,4.26-3,6.44a8.32,8.32,0,0,1-12.14,0c-2.45-2.18-3-3.27-3-6.44s.54-4.26,3-6.44a8.32,8.32,0,0,1,12.14,0Z" transform="translate(-25.44 -7.34)"/><path class="cls-1" d="M301.49,117.6c-6.07,1.09-11.78,4.18-18.58,10.16-9.52,8.35-14.59,9-22.39,2.54-5.25-4.35-7.79-5.17-11.51-3.63s-5.34,4.27-5.34,8.53c0,3,.63,4.17,3.89,7.26a50,50,0,0,0,8.79,6.44c4.54,2.45,5.71,2.72,13.6,2.72,10.42,0,13.41-1.27,23.84-9.89,9.88-8.25,13.86-8.8,21.48-3.08,6,4.53,8,5.44,10.78,4.8,6.89-1.45,9.16-9.7,4.17-15C322.15,120,311.55,116,301.49,117.6Z" transform="translate(-25.44 -7.34)"/><path class="cls-1" d="M29.68,136.2c-4.53,2.45-5.62,10.07-1.9,13.42,4.71,4.26,11.42,3.27,14.13-2,1.82-3.36,1.82-4.09.1-7.8C39.74,135.11,34.48,133.57,29.68,136.2Z" transform="translate(-25.44 -7.34)"/><path class="cls-1" d="M299.59,163c-5.44,1.46-10.06,4.18-16.68,10-3.35,3-7.52,5.9-9.24,6.44-4.08,1.36-8.61,0-13.51-4.26-2.54-2.09-5.07-3.45-7.43-3.72-3.08-.45-3.9-.09-6.35,2.27-2.17,2.17-2.71,3.53-2.71,6.62,0,3.44.45,4.26,4.16,7.8a50.27,50.27,0,0,0,9.34,6.35c4.35,2.17,6.16,2.54,12.78,2.54,9.43,0,15.23-2.36,22.93-9.35,10.33-9.34,14.95-9.79,24.56-2.08,4.26,3.35,9.06,3.81,12.6,1,5-4,3.81-10.25-3-16C318.89,163.77,308.2,160.87,299.59,163Z" transform="translate(-25.44 -7.34)"/><path class="cls-1" d="M28.59,173.29c-3,2.82-3.9,6.17-2.45,9.71a8.19,8.19,0,0,0,8.16,5.35c6.26,0,10.15-5.35,8.16-11.25A8.54,8.54,0,0,0,28.59,173.29Z" transform="translate(-25.44 -7.34)"/><path class="cls-1" d="M29.23,208.76c-2.54,1.72-4.35,6.26-3.63,9.16,2.18,8.43,14.14,9,16.86.72,2-5.89-1.9-11.24-8.16-11.24A10.11,10.11,0,0,0,29.23,208.76Z" transform="translate(-25.44 -7.34)"/><path class="cls-1" d="M298.5,208.58c-5.8,1.9-9.16,4-15.5,9.34-10.42,8.89-14.77,9.25-23.38,2.18-5.35-4.45-9-4.81-13.14-1.27-2.36,1.9-2.81,3-2.81,6.25s.54,4.36,3.89,7.62a44.53,44.53,0,0,0,9.7,6.71c5.17,2.54,6.8,2.91,13.14,2.91,8.88,0,14.69-2.45,23.11-10.07,6.26-5.62,8.52-6.71,13.42-6.71,3.44,0,5.62,1.09,10.87,5.62,5.53,4.81,13.51,2.63,15.23-4.17,1.27-5.26-4-11.43-14-16.51C313.09,207.58,304.12,206.76,298.5,208.58Z" transform="translate(-25.44 -7.34)"/></svg>