<svg id="Layer_1" data-name="Layer 1" xmlns="http://www.w3.org/2000/svg" viewBox="0 0 200 339.5"><defs><style>.cls-1{fill:#004fa0;}</style></defs><title>Bottled-Water-Dis</title><path class="cls-1" d="M119.5,1.6c-8.8,4.5-12.7,11.5-13.3,23.9-.4,7.1-.9,9.5-2.6,11.8-3.1,4.2-3,16.3.2,20.6,2,2.8,2.2,4.1,2.2,17.2,0,12.4-.2,14.4-1.9,16.5-4.6,5.8-3.8,17.5,1.5,23.3,1.9,2.1,3.4,4.4,3.4,5a31.42,31.42,0,0,0,2.6,6.3c3.5,6.8,12.5,15.8,19.4,19.1l5.5,2.7-.3,7.8-.3,7.9-8.2.6c-13.5,1-22.6,5.5-29.2,14.5-5.8,7.9-6.5,11.4-6.5,31.4,0,17.7,0,17.8,2.4,19.3,2.8,1.9,5.8.9,7.6-2.5.6-1,1-8.8,1-17.6,0-13.9.2-16.3,2.1-20.1,2.3-4.7,8.6-10.6,12.9-12.2l2.8-.9.4,30.6c.5,34,.7,35.4,7.3,44.4a37.19,37.19,0,0,0,17,12.4c4.6,1.8,8.1,1.9,46.5,1.9s41.9-.1,46.5-1.9a37.19,37.19,0,0,0,17-12.4c6.6-9,6.8-10.4,7.3-44.4l.4-30.6,2.8.9c4.4,1.6,10.6,7.5,12.9,12.3,2.1,4.3,2.1,5,1.9,64.4l-.3,60-3,4.3a37.06,37.06,0,0,1-7.4,7.4l-4.3,3-71.6.3c-47.1.2-72.9-.1-75.2-.7-4.9-1.4-11.9-7.7-14.1-12.5-1.7-3.7-1.9-7.2-1.9-37.4,0-20.8-.4-34.1-1-35.2-1.8-3.4-4.8-4.4-7.6-2.5l-2.5,1.6.3,36.7c.3,36.7.3,36.7,2.8,41.7A39.77,39.77,0,0,0,111.5,337l5,2.5h151l5-2.5A39.77,39.77,0,0,0,289,320.5l2.5-5,.3-61.4c.3-68.1.4-66.1-6.3-75.3-6.6-9-15.7-13.5-29.2-14.5l-8.2-.6-.3-7.9-.3-7.8,5.5-2.7c6.9-3.3,15.9-12.3,19.4-19.1a31.42,31.42,0,0,0,2.6-6.3c0-.6,1.5-2.9,3.4-5,5.3-5.8,6.1-17.5,1.5-23.3-1.7-2.1-1.9-4.1-1.9-16.5,0-13.1.2-14.4,2.3-17.2,3.1-4.3,3.2-16.4.1-20.6-1.7-2.3-2.2-4.7-2.6-11.8-.5-10.4-2.5-15.3-8.4-20.4C264.3.5,262.2,0,250.1,0,238.5,0,237,.6,237,5.1s3.1,5.9,13.6,5.9c8.9,0,9.3.1,12.2,3,2.6,2.5,3.1,3.9,3.4,9l.3,6h-149l.3-6c.3-5.1.8-6.5,3.4-9l3-3h49.2c48.4,0,49.4,0,52-2.1,3-2.4,3.3-4.9.8-7.2C224.5.2,219.4,0,173.4,0,129.3,0,122.1.2,119.5,1.6Zm151,45.9v6h-157l-.3-4.9a21.55,21.55,0,0,1,.2-6.2c.5-1.2,12.9-1.4,78.8-1.2l78.3.3Zm-4,27.5v9h-149V66h149Zm4,27.5v6h-157l-.3-4.9a21.55,21.55,0,0,1,.2-6.2c.5-1.2,12.9-1.4,78.8-1.2l78.3.3ZM262,122c0,2.1-9.1,10.7-14.2,13.6l-5.3,2.9h-101l-5.3-2.9c-5.1-2.9-14.2-11.5-14.2-13.6,0-.7,22.1-1,70-1S262,121.3,262,122Zm-26,35.5V164H148V151h88ZM251,206c0,23.3-.3,30.8-1.4,33.4a27.11,27.11,0,0,1-12.1,12.5c-4.3,2-5.9,2.1-45.5,2.1s-41.2-.1-45.5-2.1a27.11,27.11,0,0,1-12.1-12.5c-1.1-2.6-1.4-10.1-1.4-33.4V176H251Z" transform="translate(-91.9 0)"/><path class="cls-1" d="M163.2,195c-4.4,1-10,6.5-11.2,11s-1.3,13.5,0,17.9c2.2,7.9,11.2,13.2,18.8,11.2,4.6-1.3,9.9-6.5,11.2-11.2,1.3-4.4,1.3-13.4,0-18.1-1.2-4.1-7.9-10.8-10.9-10.8a15.68,15.68,0,0,1-3.3-.4A13.75,13.75,0,0,0,163.2,195Z" transform="translate(-91.9 0)"/><path class="cls-1" d="M213.2,195c-4.4,1-10,6.5-11.2,11s-1.3,13.5,0,17.9c2.2,7.9,11.2,13.2,18.8,11.2,4.6-1.3,9.9-6.5,11.2-11.2,1.3-4.4,1.3-13.4,0-18.1-1.2-4.1-7.9-10.8-10.9-10.8a15.68,15.68,0,0,1-3.3-.4A13.75,13.75,0,0,0,213.2,195Z" transform="translate(-91.9 0)"/><path class="cls-1" d="M231,274.9c-3.9,2-8,8.2-8,12.2a5.89,5.89,0,0,0,8.9,5c.8-.5,1.9-2.4,2.5-4.3s1.9-3.4,2.9-3.6a4.05,4.05,0,0,1,4.7,3.9c0,2.4,2.7,4.9,5.4,4.9,3.6,0,6-3.3,5.3-7.5A14.85,14.85,0,0,0,231,274.9Z" transform="translate(-91.9 0)"/><path class="cls-1" d="M146.2,275.6c-1.9,1.3-2.2,2.4-2.2,8.3,0,7.4,1,9.1,5.1,9.1,4.5,0,5.9-2.3,5.9-9.5,0-5.5-.3-6.6-2.2-7.9a8,8,0,0,0-3.3-1.6A8,8,0,0,0,146.2,275.6Z" transform="translate(-91.9 0)"/><path class="cls-1" d="M178.2,283.6c-5.2,3.6-.5,11,9.2,14,4.8,1.5,5.7,1.5,10.8,0,10.6-3,15.2-10.9,8.6-14.5-2.4-1.4-2.9-1.3-6.5,1.2-5,3.5-9.8,3.5-14.3.2C182,281.6,181.2,281.5,178.2,283.6Z" transform="translate(-91.9 0)"/></svg>