<svg id="Layer_1" data-name="Layer 1" xmlns="http://www.w3.org/2000/svg" viewBox="0 0 384 314"><defs><style>.cls-1{fill:#004fa0;}</style></defs><title>Deep-Freezer</title><path class="cls-1" d="M0,157.5V302H23.7l1.6,5.8c2,7.1,7.7,14.1,14.2,17.1,3.8,1.8,6.3,2.1,16.7,2.1s12.8-.3,16.5-2.1c6.2-3,12-10.1,14.1-17.1l1.7-5.8H290v2.8c0,4,4.6,12.7,8.3,15.8,6.2,5.2,10.2,6.4,22.9,6.4,6.4,0,12.9-.5,14.5-1.1,8.3-3.1,15.7-11.6,16.9-19.5l.6-4.4H384V13H0ZM52,23v6H4V17H52Zm132,0v6H93V17h91Zm99,0v6H203V17h80Zm97,0v6H324V17h56Zm0,142.5V297H4V34H380ZM333.8,304.7c.2,1-.9,3-2.3,4.3-5.4,5-20.6,3.3-22.1-2.6a5.5,5.5,0,0,1-.1-3.1c.3-.4,5.8-.7,12.4-.6C332.4,302.8,333.5,303,333.8,304.7ZM69,304.1c0,8.7-20.6,11-25,2.9a3.94,3.94,0,0,1-.5-3C44.4,302.6,69,302.7,69,304.1Z" transform="translate(0 -13)"/><path class="cls-1" d="M309.9,255.3c-3.7,2.4-7.9,9.7-7.9,13.7s4.2,11.3,7.9,13.7c3.3,2.2,4.2,2.3,25.1,2.3s21.8-.1,25-2.3a16.23,16.23,0,0,0,4.8-22.5c-4.5-6.7-6.7-7.2-30.6-7.2C314.2,253,313.2,253.1,309.9,255.3Zm17.5,7.8c4.5,3.6,3.1,10.2-2.6,12.2-4.2,1.5-9.8-3-9.8-7.9,0-2.3,4.6-6.4,7.3-6.4A9.93,9.93,0,0,1,327.4,263.1Z" transform="translate(0 -13)"/></svg>