<svg id="Layer_1" data-name="Layer 1" xmlns="http://www.w3.org/2000/svg" viewBox="0 0 384.4 338.8"><defs><style>.cls-1{fill:#004fa0;}</style></defs><title>Home</title><path class="cls-1" d="M100.9,83.1C49.5,128.3,5.7,167,3.5,169.1L-.4,173l2,2.7c6.9,9.3,20.2,9.6,32.4.9,2.7-1.9,40-33.2,83-69.6l78.2-66.2,3.1,2.9c2.8,2.6,29,26.1,122.5,109.8,25.5,22.9,32.4,27.4,42.6,28.2a30.25,30.25,0,0,0,10-.7c4.2-1.4,10.6-6.5,10.6-8.5,0-.7-23.1-22.2-51.2-47.7S262.4,61,239.1,39.9,196.2,1.4,195.5,1.2,152.2,37.9,100.9,83.1Z" transform="translate(0.4 -1.2)"/><path class="cls-1" d="M300,62.3V85.6l19.2,16.2c10.5,8.9,19.6,16.2,20.1,16.2s.6-.7.3-1.6-.6-18.6-.6-39.5V39H300Z" transform="translate(0.4 -1.2)"/><path class="cls-1" d="M122,124.6,50.9,184.1l.3,75.7c.2,59.4.6,76.2,1.6,77.9l1.3,2.3H158V298.5c0-47.2-.1-46.6,7.2-48.5,6.1-1.7,47.4-.9,51.1,1,5.7,2.8,5.7,3.2,5.7,48v41h50.8c50.5,0,50.9,0,52.8-2.1s1.9-5,2.2-78.3l.2-76.1-66.6-59.3C224.8,91.7,194.4,65,193.9,65S161.1,91.8,122,124.6Z" transform="translate(0.4 -1.2)"/></svg>