<svg id="Layer_1" data-name="Layer 1" xmlns="http://www.w3.org/2000/svg" viewBox="0 0 200.1 338.05"><defs><style>.cls-1{fill:#004fa0;}</style></defs><title>Visi-Cooler</title><path class="cls-1" d="M94,3c-1.8,1.8-2,3.3-2,14.8,0,12.5.1,12.9,2.6,15.3l2.6,2.4,93.7.3,93.8.2,3.4-2.3,3.4-2.3.3-12.8c.2-12.1.1-13-1.9-15.3L287.7,1H191.8C97.3,1,96,1,94,3ZM285.8,7.2c1.9,1.9,1.6,19.3-.4,21.2-1.4,1.4-11.2,1.6-93,1.6-61.2,0-92.2-.3-93.5-1C97.2,28,97,26.8,97,18.2c0-6.3.4-10.2,1.2-11C99.9,5.5,284.1,5.5,285.8,7.2Z" transform="translate(-91.9 -1)"/><path class="cls-1" d="M93.2,42.2c-1.8,1.8-1.7,274.1.1,275.6a14.87,14.87,0,0,0,4.4,1.7c3.5.7,3.3.2,6.6,13.5l1.3,5.5,18.6.3,18.6.2,1.7-10,1.8-10h91.6l1.1,4.2c.6,2.4,1.6,6.1,2.1,8.3s1.2,4.8,1.5,5.7c.5,1.6,2.3,1.8,18.9,1.8,21,0,18.3,1.5,20.6-11.8,1.1-6.5,1.5-7.3,3.8-7.9a12.82,12.82,0,0,0,4.4-2.1c1.6-1.4,1.7-7.8,1.7-106.4,0-70.4-.3-105.6-1-106.9-1.2-2.2-5.9-2.6-7.8-.7-.9.9-1.2,25.3-1.2,103.5V309H102V257h9v20.5c0,19.2.1,20.5,1.9,21.5,1.3.7,28,1,79.5,1,69.1,0,77.6-.2,79-1.6s1.6-13.5,1.6-118.8c0-89.8-.3-117.5-1.2-118.4-1.7-1.7-157.9-1.7-159.6,0-.9.9-1.2,8.5-1.2,28V116h-9V51H282V70c0,17.7.1,19,1.9,20,2.7,1.4,4.7,1.3,6.5-.6,1.4-1.3,1.6-4.8,1.6-23,0-12.9-.4-22.3-1-23.5-1-1.9-3.2-1.9-98.8-1.9C117.5,41,94.1,41.3,93.2,42.2Zm39.2,33c7.5,26.4,7.7,27.1,13.3,31.7,7,5.9,10.4,6.3,48.5,5.9l34.4-.3,4.8-2.5c8-4.1,10.3-8,15-24.7l4.2-14.8,5.2-.3,5.2-.3V168H252V149c0-24.4,1.1-23-17.4-23-10.9,0-13.8.3-15,1.6s-1.6,4.6-1.6,21V168h-9V148.8c0-16.4-.2-19.4-1.7-21S204,126,192.2,126c-11.2,0-13.9.3-15.4,1.7s-1.8,3.5-1.8,21V168h-9V148.8c0-16.4-.2-19.4-1.7-21S161,126,149.2,126c-11.2,0-13.9.3-15.4,1.7s-1.8,3.5-1.8,21V168H121V70h9.9Zm42.4-1.6c-2.2,8.3,4.1,18.1,13.3,20.5,4,1.1,5.3,1,9.2-.5,8.5-3.2,13.6-11.9,11.8-19.9l-.9-3.7h17c15.7,0,16.9.1,16.4,1.7-.3,1-1.7,6.3-3.2,11.8a105.09,105.09,0,0,1-4,12.7c-2.9,5.6-4.1,5.8-42.4,5.8s-39.5-.2-42.4-5.8c-1.1-2.2-7.6-24-7.6-25.7,0-.3,7.6-.5,16.9-.5h16.9ZM197,72a7.22,7.22,0,0,1-5,12.3c-4.3,0-7-2.8-7-7.4,0-2.8.6-4.2,2.2-5.3C190.3,69.4,194.6,69.6,197,72ZM111,186v62h-9V124h9Zm45-34v16H142V136h14Zm43,0v16H185V136h14Zm42.5,0v16H228V136h13.5ZM263,182.5V187H121v-9H263Zm0,42V252H252V233c0-24.2.9-23-17-23-18.1,0-17-1.5-17,22.6V252h-9V232.6c0-24.1,1.1-22.6-17-22.6s-17-1.5-17,22.6V252h-9V232.6c0-24.1,1.2-22.6-17.2-22.6-17.8,0-16.8-1.3-16.8,23v19H121.3l-.6-12.7c-.3-7.1-.3-19.4,0-27.5l.6-14.8H263Zm-107,12V252H142V221h14Zm43,0V252H185V221h14Zm42.5,0V252H228V221h13.5Zm21.5,30V271H121v-9H263Zm0,19V290H121v-9H263ZM142,319.3c0,.9-2.2,12.4-2.6,13.9S137.3,335,124,335H109.1l-1.1-4.3c-.6-2.3-1.5-5.6-2-7.4-.5-2.2-.4-3.3.3-3.7C107.6,319.1,142,318.8,142,319.3Zm135.7.5c.9.6.9,2.4.1,8l-1.2,7.2H246.2l-2-8-2-8h17.2C268.8,319,277,319.4,277.7,319.8Z" transform="translate(-91.9 -1)"/></svg>