<svg id="Layer_1" data-name="Layer 1" xmlns="http://www.w3.org/2000/svg" viewBox="0 0 280.87 338"><defs><style>.cls-1{fill:#004fa0;}</style></defs><title>Water-Purifier</title><path class="cls-1" d="M63.3,1.5c-.5,1.6.2,22.2,1.7,48,.4,7.7,1.5,28.4,2.5,46,2.5,48,4.7,86.6,6.5,115.5,1.3,19.7,2.7,43.6,4,65.5,1.3,22.5,2,32.6,2.6,35.2.3,1.6,5.7,5.8,18.6,14.3l18.2,12H285.5L303,326.5c9.6-6.3,18.1-12.3,18.8-13.2s1.2-4.5,1.2-8V299h8v6.3c0,8.6,1.6,10.7,8.1,10.7H344V285.2l-2.9-1.2a30.86,30.86,0,0,0-9.5-.8l-6.6.3V276h7.3c12.6,0,11.7,1.2,11.7-16.6V244.1l-3.6-.7c-2.7-.5-4.2-.2-6.2,1.3-2.4,1.8-2.7,2.7-3,9.2l-.3,7.1h-3.1c-2.4,0-2.9-.3-2.4-1.6,1-2.7,3.6-41.2,5.8-84.9.6-12.1,1.4-28.1,1.8-35.5s1.3-23.4,1.8-35.5,1.4-25.4,1.7-29.5,1.1-15.6,1.6-25.5,1.3-23.8,1.8-30.8c.6-7.9.6-13.8.1-15.3L339,0H255V13h70.1l-.6,3.2c-.3,1.8-1,13.2-1.6,25.3-2.2,42.6-2.6,50.3-4.7,81.5-1.2,17.3-2.7,40.9-3.3,52.5s-1.5,27.3-1.9,35-1.3,24.6-1.9,37.5-1.5,28.8-2.1,35.2-1,13.8-1,16.5v4.9l-7.7,5.1c-4.3,2.9-10.7,7.2-14.3,9.7l-6.5,4.5h-156l-6.5-4.5c-3.6-2.4-10-6.8-14.2-9.6-6.8-4.6-7.8-5.6-7.8-8.3-.1-1.6-.5-10.7-1.1-20-3.1-52.4-4.5-77.9-6.4-113C85,121.2,84.2,107.2,83.6,99c-.3-4.1-1-15.8-1.6-26-.9-15.7-2.1-35.1-3.4-55.3L78.3,13H224V0H144C73,0,63.9.2,63.3,1.5Z" transform="translate(-63.14 0)"/><path class="cls-1" d="M231.2,6.2l.3,6.3,7.8.3,7.7.3V0H230.9Z" transform="translate(-63.14 0)"/><path class="cls-1" d="M94.2,29c-2.5,2.4-3.7,6.2-2.7,8.7.4,1,1.1,8.1,1.6,15.8,1.8,26.3,2.7,39,3.8,57,.6,9.9,1.6,21.6,2.1,26.1a135.16,135.16,0,0,1,1,15.2,105.75,105.75,0,0,0,1,13.9c.5,3.8,1.7,17.6,2.6,30.8,3.1,44.1,3.3,47,4.2,52.9.6,3.8,1.6,6.4,2.7,7.3,1.5,1,8.3,1.3,31.7,1.3H172v-7.5c0-5.3-.4-7.5-1.2-7.6l-24.8-.2-23.5-.2-.7-11c-.4-6.1-1.2-17.1-1.7-24.5s-1.3-16.7-1.6-20.5-1-14.2-1.6-23c-1.5-22.7-2.7-38.7-6.8-91.5-.6-6.9-1.3-16.2-1.6-20.8L108,43H295.2l-.6,9.7c-.3,5.4-1,15.2-1.6,21.8-1.4,17.6-2.8,36.3-3.9,50.5-.6,6.9-1.5,18.3-2.1,25.5s-1.5,19.5-2.1,27.5-1.4,20.1-2,27-1.3,18.1-1.7,25l-.7,12.5-23.5.2-25.2.2c-1.6.1-1.8,1.1-1.8,7.6V258h30.3c37.7,0,34.9,1.4,36.2-18,.4-5.2,1.1-14.5,1.5-20.5s1.4-18.4,1.9-27.5,1.3-19.7,1.7-23.5c.6-7.8,1.8-23.9,3.3-45,2.8-38.8,4.9-66.5,6.1-79.3,1-10.8.5-13.3-2.9-15.9-1.2-1-25.7-1.2-106.7-1.3C97.3,27,96.4,27,94.2,29Z" transform="translate(-63.14 0)"/><path class="cls-1" d="M138.4,126.3c-7.6,5.7-10.5,7.2-14.6,8.1-2.8.6-2.8.8-2.8,8.1V150h3.5a14.9,14.9,0,0,0,5.3-.9c.9-.5,3.3-1.6,5.3-2.5a74.16,74.16,0,0,0,8.9-5.1l5.1-3.4,5.2,3.5c8.3,5.7,15.1,8.4,21.2,8.4,3.1,0,6.3-.4,7.3-.9,8.4-4.2,11.2-5.8,14.7-8.1l4-2.8,4,2.8c3.5,2.3,6.2,3.8,14.7,8.1,2.3,1.2,12.4,1.1,14.6,0,.9-.5,3.3-1.6,5.3-2.5a61.84,61.84,0,0,0,8.7-5.1l5.1-3.4,5.1,3.4a74.16,74.16,0,0,0,8.9,5.1c2,.9,4.4,2,5.3,2.5a14.13,14.13,0,0,0,5.1.9h3.4l.6-6.8c.7-7.2-.3-9.2-4.5-9.2-2.1,0-11.6-5.8-16.6-10.1-4.6-4-9.6-4-14.8.2-8.7,6.9-14.6,10.1-19,10.1-4.6,0-6.8-1.2-16-8.4-8.4-6.5-11.4-6.5-19.8,0-9.2,7.2-11.4,8.4-16,8.4-4.4,0-10.3-3.2-19-10.1C150.8,119.4,147.2,119.9,138.4,126.3Z" transform="translate(-63.14 0)"/><path class="cls-1" d="M165.2,184c-2.7,2.6-2.9,8-.4,10.3.9.8,6,2.9,11.2,4.7s10,3.3,10.7,3.5-1,2.5-3.7,5.2c-4.3,4.3-4.9,5.4-5.5,10.6a147.15,147.15,0,0,0-.3,18.6l.4,12.9,3.7,4.5,3.7,4.5v16c0,14.6.2,16.1,2.1,18.6s2.2,2.6,14.4,2.6,12.4,0,14.4-2.6,2.1-4,2.1-18.7v-16l3.5-4.3,3.5-4.2V213l-3.7-4.1c-4-4.4-8-6.9-11.3-6.9-1.6,0-2-.6-2-3.6,0-5.5-3.3-7.8-15.5-10.8-3.8-1-7.9-2.1-9-2.5C174.1,181.4,168.4,181.1,165.2,184ZM210,232v14H193V218h17Z" transform="translate(-63.14 0)"/></svg>